<svg width="1146" height="680" viewBox="0 0 1146 680" fill="none" xmlns="http://www.w3.org/2000/svg">
<path d="M154.148 656.7H105.135L97.8657 678.96H49.4756L103.265 531.674H156.432L210.014 678.96H161.417L154.148 656.7ZM142.933 621.959L129.641 580.977L116.349 621.959H142.933Z" fill="#222849"/>
<path d="M216.336 605.109C216.336 590.547 219.243 577.579 225.058 566.207C231.012 554.835 239.458 546.028 250.396 539.787C261.334 533.407 274.21 530.218 289.025 530.218C301.763 530.218 313.116 532.645 323.085 537.499C333.192 542.214 341.361 548.94 347.591 557.678C353.96 566.415 358.183 576.609 360.26 588.258H311.662C309.447 583.404 306.262 579.66 302.109 577.025C298.094 574.251 293.455 572.864 288.194 572.864C280.44 572.864 274.279 575.776 269.71 581.601C265.28 587.426 263.064 595.262 263.064 605.109C263.064 614.956 265.28 622.791 269.71 628.616C274.279 634.441 280.44 637.354 288.194 637.354C293.455 637.354 298.094 636.036 302.109 633.401C306.262 630.627 309.447 626.813 311.662 621.959H360.26C358.183 633.609 353.96 643.803 347.591 652.54C341.361 661.277 333.192 668.073 323.085 672.927C313.116 677.642 301.763 680 289.025 680C274.21 680 261.334 676.879 250.396 670.639C239.458 664.259 231.012 655.383 225.058 644.011C219.243 632.638 216.336 619.671 216.336 605.109Z" fill="#222849"/>
<path d="M471.148 656.7H422.135L414.866 678.96H366.476L420.266 531.674H473.432L527.015 678.96H478.417L471.148 656.7ZM459.933 621.959L446.641 580.977L433.35 621.959H459.933Z" fill="#222849"/>
<path d="M598.756 531.674C614.124 531.674 627.555 534.794 639.046 541.035C650.677 547.276 659.607 555.944 665.837 567.039C672.068 578.134 675.183 590.755 675.183 604.901C675.183 618.908 672.068 631.529 665.837 642.762C659.607 653.996 650.677 662.872 639.046 669.39C627.555 675.77 614.124 678.96 598.756 678.96H537.489V531.674H598.756ZM594.602 637.77C604.986 637.77 613.224 634.927 619.316 629.24C625.409 623.554 628.455 615.441 628.455 604.901C628.455 594.36 625.409 586.247 619.316 580.561C613.224 574.875 604.986 572.032 594.602 572.032H583.595V637.77H594.602Z" fill="#222849"/>
<path d="M737.937 568.495V586.594H783.628V621.335H737.937V642.138H789.858V678.96H691.832V531.674H789.858V568.495H737.937Z" fill="#222849"/>
<path d="M983.972 531.674V678.96H938.074V605.525L915.436 678.96H875.977L853.339 605.525V678.96H807.234V531.674H863.723L896.122 620.087L927.69 531.674H983.972Z" fill="#222849"/>
<path d="M1146 531.674L1093.25 634.233V678.96H1047.14V634.233L994.392 531.674H1047.14L1070.61 583.89L1094.08 531.674H1146Z" fill="#222849"/>
<path d="M0 113.092V23.3765H749.319V180.063L584.696 157.318V113.092H258.603V375.92H584.696V315.899H451.61V226.184H749.319V465.635H93.9803V113.092H0Z" fill="#222849"/>
<path d="M862.907 465.635V375.92H967.61V190.171L862.907 240.715V129.519L1132.23 0V465.635H862.907Z" fill="#222849"/>
</svg>
